<?xml version="1.0" encoding="UTF-8"?>
<svg xmlns="http://www.w3.org/2000/svg" xmlns:xlink="http://www.w3.org/1999/xlink" width="30pt" height="30.000001pt" viewBox="0 0 30 30.000001" version="1.2">
<defs>
<clipPath id="clip1">
  <path d="M 0.484375 0 L 29.515625 0 L 29.515625 29 L 0.484375 29 Z M 0.484375 0 "/>
</clipPath>
<clipPath id="clip2">
  <path d="M 3.484375 3.042969 L 26.417969 3.042969 L 26.417969 25.976562 L 3.484375 25.976562 Z M 3.484375 3.042969 "/>
</clipPath>
</defs>
<g id="surface1">
<g clip-path="url(#clip1)" clip-rule="nonzero">
<path style=" stroke:none;fill-rule:nonzero;fill:rgb(0%,0%,0%);fill-opacity:1;" d="M 15 0.324219 C 14.066406 0.324219 13.144531 0.414062 12.230469 0.59375 C 11.316406 0.777344 10.429688 1.046875 9.570312 1.402344 C 8.707031 1.761719 7.890625 2.195312 7.113281 2.714844 C 6.339844 3.234375 5.621094 3.820312 4.964844 4.480469 C 4.304688 5.140625 3.714844 5.855469 3.199219 6.628906 C 2.679688 7.40625 2.242188 8.222656 1.886719 9.085938 C 1.53125 9.945312 1.261719 10.832031 1.078125 11.746094 C 0.898438 12.660156 0.808594 13.585938 0.808594 14.515625 C 0.808594 15.449219 0.898438 16.371094 1.078125 17.285156 C 1.261719 18.199219 1.53125 19.085938 1.886719 19.949219 C 2.242188 20.808594 2.679688 21.625 3.199219 22.402344 C 3.714844 23.175781 4.304688 23.894531 4.964844 24.550781 C 5.621094 25.210938 6.339844 25.800781 7.113281 26.316406 C 7.890625 26.835938 8.707031 27.273438 9.570312 27.628906 C 10.429688 27.984375 11.316406 28.253906 12.230469 28.4375 C 13.144531 28.617188 14.066406 28.710938 15 28.710938 C 15.933594 28.710938 16.855469 28.617188 17.769531 28.4375 C 18.683594 28.253906 19.570312 27.984375 20.429688 27.628906 C 21.292969 27.273438 22.109375 26.835938 22.886719 26.316406 C 23.660156 25.800781 24.378906 25.210938 25.035156 24.550781 C 25.695312 23.894531 26.285156 23.175781 26.800781 22.402344 C 27.320312 21.625 27.757812 20.808594 28.113281 19.949219 C 28.46875 19.085938 28.738281 18.199219 28.921875 17.285156 C 29.101562 16.371094 29.191406 15.449219 29.191406 14.515625 C 29.191406 13.585938 29.101562 12.660156 28.921875 11.746094 C 28.738281 10.832031 28.46875 9.945312 28.113281 9.085938 C 27.757812 8.222656 27.320312 7.40625 26.800781 6.628906 C 26.285156 5.855469 25.695312 5.140625 25.035156 4.480469 C 24.378906 3.820312 23.660156 3.234375 22.886719 2.714844 C 22.109375 2.195312 21.292969 1.761719 20.429688 1.402344 C 19.570312 1.046875 18.683594 0.777344 17.769531 0.59375 C 16.855469 0.414062 15.933594 0.324219 15 0.324219 Z M 15 0.324219 "/>
</g>
<g clip-path="url(#clip2)" clip-rule="nonzero">
<path style=" stroke:none;fill-rule:nonzero;fill:rgb(100%,100%,100%);fill-opacity:1;" d="M 3.484375 14.511719 C 3.484375 8.1875 8.628906 3.042969 14.949219 3.042969 C 21.273438 3.042969 26.417969 8.1875 26.417969 14.511719 C 26.417969 20.832031 21.273438 25.976562 14.949219 25.976562 C 8.628906 25.976562 3.484375 20.832031 3.484375 14.511719 Z M 25.285156 14.511719 C 25.285156 8.8125 20.648438 4.175781 14.949219 4.175781 C 9.253906 4.175781 4.621094 8.8125 4.621094 14.511719 C 4.621094 20.207031 9.253906 24.839844 14.949219 24.839844 C 20.648438 24.839844 25.285156 20.207031 25.285156 14.511719 Z M 25.285156 14.511719 "/>
</g>
<path style=" stroke:none;fill-rule:nonzero;fill:rgb(100%,100%,100%);fill-opacity:1;" d="M 10.320312 21.382812 C 13.628906 19.242188 16.9375 17.101562 20.246094 14.960938 C 20.628906 14.710938 20.632812 14.175781 20.246094 13.929688 C 16.9375 11.832031 13.628906 9.734375 10.320312 7.636719 C 9.667969 7.222656 9.070312 8.257812 9.71875 8.667969 C 13.027344 10.765625 16.332031 12.863281 19.640625 14.960938 C 19.640625 14.617188 19.640625 14.273438 19.640625 13.929688 C 16.332031 16.070312 13.027344 18.210938 9.71875 20.351562 C 9.074219 20.769531 9.671875 21.804688 10.320312 21.382812 Z M 10.320312 21.382812 "/>
</g>
</svg>
