<?xml version="1.0" encoding="UTF-8"?>
<svg xmlns="http://www.w3.org/2000/svg" xmlns:xlink="http://www.w3.org/1999/xlink" width="30pt" height="30.000001pt" viewBox="0 0 30 30.000001" version="1.2">
<defs>
<clipPath id="clip1">
  <path d="M 4.925781 4.480469 L 24.988281 4.480469 L 24.988281 24.542969 L 4.925781 24.542969 Z M 4.925781 4.480469 "/>
</clipPath>
</defs>
<g id="surface1">
<path style=" stroke:none;fill-rule:nonzero;fill:rgb(100%,100%,100%);fill-opacity:1;" d="M 15 1.449219 C 14.140625 1.449219 13.292969 1.535156 12.449219 1.699219 C 11.609375 1.867188 10.792969 2.117188 10 2.445312 C 9.207031 2.773438 8.453125 3.175781 7.742188 3.652344 C 7.027344 4.128906 6.367188 4.671875 5.761719 5.277344 C 5.152344 5.882812 4.613281 6.542969 4.136719 7.257812 C 3.660156 7.96875 3.257812 8.722656 2.929688 9.515625 C 2.601562 10.308594 2.351562 11.125 2.183594 11.96875 C 2.015625 12.808594 1.933594 13.65625 1.933594 14.515625 C 1.933594 15.375 2.015625 16.222656 2.183594 17.066406 C 2.351562 17.90625 2.601562 18.722656 2.929688 19.515625 C 3.257812 20.308594 3.660156 21.0625 4.136719 21.777344 C 4.613281 22.488281 5.152344 23.148438 5.761719 23.753906 C 6.367188 24.363281 7.027344 24.902344 7.742188 25.378906 C 8.453125 25.855469 9.207031 26.257812 10 26.585938 C 10.792969 26.917969 11.609375 27.164062 12.449219 27.332031 C 13.292969 27.5 14.140625 27.582031 15 27.582031 C 15.859375 27.582031 16.707031 27.5 17.550781 27.332031 C 18.390625 27.164062 19.207031 26.917969 20 26.585938 C 20.792969 26.257812 21.546875 25.855469 22.257812 25.378906 C 22.972656 24.902344 23.632812 24.363281 24.238281 23.753906 C 24.847656 23.148438 25.386719 22.488281 25.863281 21.777344 C 26.339844 21.0625 26.742188 20.308594 27.070312 19.515625 C 27.398438 18.722656 27.648438 17.90625 27.816406 17.066406 C 27.984375 16.222656 28.066406 15.375 28.066406 14.515625 C 28.066406 13.65625 27.984375 12.808594 27.816406 11.96875 C 27.648438 11.125 27.398438 10.308594 27.070312 9.515625 C 26.742188 8.722656 26.339844 7.96875 25.863281 7.257812 C 25.386719 6.542969 24.847656 5.882812 24.238281 5.277344 C 23.632812 4.671875 22.972656 4.128906 22.257812 3.652344 C 21.546875 3.175781 20.792969 2.773438 20 2.445312 C 19.207031 2.117188 18.390625 1.867188 17.550781 1.699219 C 16.707031 1.535156 15.859375 1.449219 15 1.449219 Z M 15 1.449219 "/>
<path style=" stroke:none;fill-rule:nonzero;fill:rgb(0%,0%,0%);fill-opacity:1;" d="M 15 2.101562 C 14.183594 2.101562 13.378906 2.179688 12.578125 2.339844 C 11.777344 2.5 11.003906 2.734375 10.25 3.046875 C 9.496094 3.359375 8.78125 3.742188 8.101562 4.195312 C 7.425781 4.644531 6.796875 5.160156 6.222656 5.738281 C 5.644531 6.3125 5.128906 6.941406 4.675781 7.617188 C 4.222656 8.296875 3.84375 9.011719 3.53125 9.765625 C 3.21875 10.519531 2.984375 11.292969 2.824219 12.09375 C 2.664062 12.894531 2.585938 13.699219 2.585938 14.515625 C 2.585938 15.332031 2.664062 16.136719 2.824219 16.9375 C 2.984375 17.738281 3.21875 18.515625 3.53125 19.265625 C 3.84375 20.019531 4.222656 20.734375 4.675781 21.414062 C 5.128906 22.089844 5.644531 22.71875 6.222656 23.292969 C 6.796875 23.871094 7.425781 24.386719 8.101562 24.839844 C 8.78125 25.292969 9.496094 25.675781 10.25 25.984375 C 11.003906 26.296875 11.777344 26.535156 12.578125 26.691406 C 13.378906 26.851562 14.183594 26.929688 15 26.929688 C 15.816406 26.929688 16.621094 26.851562 17.421875 26.691406 C 18.222656 26.535156 18.996094 26.296875 19.75 25.984375 C 20.503906 25.675781 21.21875 25.292969 21.898438 24.839844 C 22.574219 24.386719 23.203125 23.871094 23.777344 23.292969 C 24.355469 22.71875 24.871094 22.089844 25.324219 21.414062 C 25.777344 20.734375 26.15625 20.019531 26.46875 19.265625 C 26.78125 18.515625 27.015625 17.738281 27.175781 16.9375 C 27.335938 16.136719 27.414062 15.332031 27.414062 14.515625 C 27.414062 13.699219 27.335938 12.894531 27.175781 12.09375 C 27.015625 11.292969 26.78125 10.519531 26.46875 9.765625 C 26.15625 9.011719 25.777344 8.296875 25.324219 7.617188 C 24.871094 6.941406 24.355469 6.3125 23.777344 5.738281 C 23.203125 5.160156 22.574219 4.644531 21.898438 4.195312 C 21.21875 3.742188 20.503906 3.359375 19.75 3.046875 C 18.996094 2.734375 18.222656 2.5 17.421875 2.339844 C 16.621094 2.179688 15.816406 2.101562 15 2.101562 Z M 15 2.101562 "/>
<g clip-path="url(#clip1)" clip-rule="nonzero">
<path style=" stroke:none;fill-rule:nonzero;fill:rgb(100%,100%,100%);fill-opacity:1;" d="M 4.925781 14.511719 C 4.925781 8.980469 9.425781 4.480469 14.957031 4.480469 C 20.488281 4.480469 24.988281 8.980469 24.988281 14.511719 C 24.988281 20.042969 20.488281 24.542969 14.957031 24.542969 C 9.425781 24.542969 4.925781 20.042969 4.925781 14.511719 Z M 23.996094 14.511719 C 23.996094 9.527344 19.941406 5.472656 14.957031 5.472656 C 9.972656 5.472656 5.921875 9.527344 5.921875 14.511719 C 5.921875 19.492188 9.972656 23.546875 14.957031 23.546875 C 19.941406 23.546875 23.996094 19.492188 23.996094 14.511719 Z M 23.996094 14.511719 "/>
</g>
<path style=" stroke:none;fill-rule:nonzero;fill:rgb(100%,100%,100%);fill-opacity:1;" d="M 10.90625 20.523438 C 13.800781 18.648438 16.695312 16.777344 19.589844 14.902344 C 19.921875 14.6875 19.925781 14.21875 19.589844 14.003906 C 16.695312 12.167969 13.800781 10.332031 10.90625 8.5 C 10.335938 8.136719 9.8125 9.042969 10.378906 9.402344 C 13.273438 11.234375 16.167969 13.070312 19.0625 14.902344 C 19.0625 14.605469 19.0625 14.304688 19.0625 14.003906 C 16.167969 15.875 13.273438 17.746094 10.378906 19.621094 C 9.816406 19.984375 10.339844 20.890625 10.90625 20.523438 Z M 10.90625 20.523438 "/>
</g>
</svg>
